<svg width="220" height="60" viewBox="0 0 220 60" fill="none" xmlns="http://www.w3.org/2000/svg">
<g filter="url(#filter0_bii_2136_243062)">
<path d="M1.52421 35.699C-0.508069 32.1714 -0.508071 27.8286 1.52421 24.301L12.2304 5.71745C14.2683 2.17999 18.0401 2.15126e-07 22.1226 2.6381e-07L43.4924 5.18642e-07C47.575 5.67326e-07 51.3467 2.17999 53.3847 5.71745L64.0909 24.301C66.1231 27.8286 66.1231 32.1714 64.0909 35.699L53.3847 54.2825C51.3467 57.82 47.575 60 43.4924 60L22.1226 60C18.0401 60 14.2683 57.82 12.2304 54.2826L1.52421 35.699Z" fill="#E3AA18"/>
</g>
<path fill-rule="evenodd" clip-rule="evenodd" d="M34.1827 28.0169L21.5802 6.15344L18.2832 8.05389L30.8968 29.9366L18.2832 51.8194L21.5802 53.7198L34.2023 31.8224L59.5089 31.8224V28.0169L34.1827 28.0169ZM33.1665 29.9563L33.1324 29.9366L33.1665 29.917V29.9563Z" fill="url(#paint0_radial_2136_243062)"/>
<path fill-rule="evenodd" clip-rule="evenodd" d="M5.24813 35.4962C3.2402 32.1073 3.24021 27.893 5.24813 24.5041L9.88754 16.6737L14.3305 8.7455C16.2607 5.30136 19.9188 3.18755 23.8666 3.2352L32.9349 3.34468L42.0032 3.2352C45.951 3.18755 49.6092 5.30137 51.5393 8.7455L55.9823 16.6737L60.6217 24.5041C62.6296 27.893 62.6296 32.1073 60.6217 35.4962L55.9823 43.3266L51.5393 51.2548C49.6092 54.6989 45.951 56.8127 42.0032 56.7651L32.9349 56.6556L23.8666 56.7651C19.9188 56.8127 16.2607 54.6989 14.3305 51.2548L9.88754 43.3266L5.24813 35.4962ZM8.52212 26.4438C7.22287 28.6367 7.22287 31.3636 8.52212 33.5564L13.1732 41.4065C13.181 41.4197 13.1886 41.4329 13.1961 41.4462L17.6503 49.3944C18.8992 51.6229 21.2662 52.9907 23.8207 52.9599L32.9119 52.8501C32.9273 52.8499 32.9426 52.8499 32.9579 52.8501L42.0491 52.9599C44.6036 52.9907 46.9706 51.6229 48.2195 49.3944L52.6737 41.4462C52.6812 41.4329 52.6888 41.4197 52.6966 41.4065L57.3477 33.5564C58.647 31.3636 58.647 28.6367 57.3477 26.4439L52.6966 18.5938C52.6888 18.5806 52.6812 18.5674 52.6737 18.5541L48.2195 10.6059C46.9706 8.37735 44.6036 7.00959 42.0491 7.04042L32.9579 7.15017C32.9426 7.15036 32.9273 7.15036 32.9119 7.15017L23.8207 7.04042C21.2662 7.00959 18.8992 8.37735 17.6503 10.6059L13.1961 18.5541C13.1886 18.5674 13.181 18.5806 13.1732 18.5938L8.52212 26.4438Z" fill="white"/>
<path fill-rule="evenodd" clip-rule="evenodd" d="M23.1063 14.9972C23.5603 14.1863 24.4213 13.6885 25.3506 13.6998L33.2445 13.7952L41.1384 13.6998C42.0677 13.6885 42.9288 14.1863 43.3828 14.9972L47.2623 21.9267C47.9468 23.1493 47.5106 24.6953 46.288 25.3797C45.0655 26.0642 43.5195 25.628 42.835 24.4054L39.692 18.7916L33.2752 18.8692C33.2547 18.8694 33.2343 18.8694 33.2139 18.8692L26.797 18.7916L23.6541 24.4054C23.6441 24.4232 23.634 24.4408 23.6236 24.4583L20.3435 29.9998L23.6236 35.5413C23.634 35.5588 23.6441 35.5764 23.6541 35.5942L26.797 41.208L33.2139 41.1304C33.2343 41.1302 33.2547 41.1302 33.2752 41.1304L39.692 41.208L42.835 35.5942C43.5195 34.3716 45.0655 33.9354 46.288 34.6199C47.5106 35.3043 47.9468 36.8503 47.2623 38.0729L43.3828 45.0024C42.9288 45.8133 42.0677 46.3111 41.1384 46.2998L33.2445 46.2044L25.3506 46.2998C24.4213 46.3111 23.5603 45.8133 23.1063 45.0024L19.2416 38.0995L15.2122 31.2921C14.7405 30.4951 14.7405 29.5045 15.2122 28.7075L19.2416 21.9001L23.1063 14.9972Z" fill="white"/>
<path d="M28.5576 25.0044C28.5576 24.0337 29.6034 23.4227 30.449 23.8993L39.5361 29.022C40.3969 29.5072 40.3969 30.7467 39.5361 31.232L30.449 36.3546C29.6034 36.8313 28.5576 36.2203 28.5576 35.2496V25.0044Z" fill="#644900"/>
<path fill-rule="evenodd" clip-rule="evenodd" d="M33.0921 30.301C34.0119 29.7927 35.1696 30.1262 35.6778 31.046L38.3417 35.8663C38.85 36.786 38.5164 37.9437 37.5967 38.452C36.6769 38.9603 35.5192 38.6267 35.011 37.707L32.3471 32.8867C31.8388 31.9669 32.1724 30.8093 33.0921 30.301Z" fill="#644900"/>
<path d="M79.0359 25.7931C77.6612 25.7931 76.6406 25.4732 75.9741 24.8334C75.3214 24.1936 74.9951 23.1931 74.9951 21.8319V15.4612C74.9951 14.1 75.3214 13.0995 75.9741 12.4597C76.6406 11.8199 77.6612 11.5 79.0359 11.5H85.7427C87.1174 11.5 88.131 11.8199 88.7837 12.4597C89.4502 13.0995 89.7834 14.1 89.7834 15.4612V21.8319C89.7834 23.1931 89.4502 24.1936 88.7837 24.8334C88.131 25.4732 87.1174 25.7931 85.7427 25.7931H79.0359ZM80.2856 22.812H84.493C85.1317 22.812 85.5761 22.6894 85.826 22.4444C86.0759 22.1858 86.2009 21.7502 86.2009 21.1376V16.1555C86.2009 15.5429 86.0759 15.1141 85.826 14.8691C85.5761 14.6104 85.1317 14.4811 84.493 14.4811H80.2856C79.6607 14.4811 79.2164 14.6104 78.9526 14.8691C78.7026 15.1141 78.5776 15.5429 78.5776 16.1555V21.1376C78.5776 21.7502 78.7026 22.1858 78.9526 22.4444C79.2164 22.6894 79.6607 22.812 80.2856 22.812Z" fill="white"/>
<path d="M100.358 14.9303C101.636 14.9303 102.559 15.2094 103.129 15.7675C103.698 16.312 103.983 17.2172 103.983 18.4832V24.9763C103.983 25.5208 103.705 25.7931 103.149 25.7931H101.421C100.865 25.7931 100.587 25.5208 100.587 24.9763V19.0549C100.587 18.5104 100.483 18.1429 100.275 17.9523C100.081 17.7481 99.7057 17.646 99.1503 17.646H98.088C97.1577 17.646 96.4356 17.8434 95.9219 18.2382L95.2762 18.7691V24.9763C95.2762 25.5208 94.9985 25.7931 94.443 25.7931H92.7351C92.1797 25.7931 91.9019 25.5208 91.9019 24.9763V15.7471C91.9019 15.2026 92.1797 14.9303 92.7351 14.9303H93.964C94.45 14.9303 94.7624 15.1618 94.9013 15.6246L95.0471 16.278C95.7275 15.7062 96.3315 15.3387 96.8591 15.1754C97.3868 15.012 98.1713 14.9303 99.2128 14.9303H100.358Z" fill="white"/>
<path d="M114.45 14.9303C115.727 14.9303 116.651 15.2094 117.22 15.7675C117.789 16.312 118.074 17.2172 118.074 18.4832V20.0963C118.074 20.6408 117.796 20.913 117.241 20.913H109.368V21.8114C109.368 22.3559 109.472 22.7303 109.68 22.9345C109.888 23.125 110.27 23.2203 110.826 23.2203H113.825C114.492 23.2203 114.825 22.9345 114.825 22.3627V22.3219C114.825 21.968 115.005 21.791 115.366 21.791H117.408C117.852 21.791 118.074 22.0088 118.074 22.4444V22.7303C118.074 23.792 117.817 24.568 117.303 25.058C116.804 25.5481 116.019 25.7931 114.95 25.7931H109.618C108.34 25.7931 107.417 25.5208 106.847 24.9763C106.278 24.4182 105.993 23.5062 105.993 22.2402V18.4832C105.993 17.2172 106.278 16.312 106.847 15.7675C107.417 15.2094 108.34 14.9303 109.618 14.9303H114.45ZM109.368 18.912H114.825V18.7078C114.825 18.1633 114.721 17.7958 114.512 17.6052C114.304 17.401 113.922 17.2989 113.367 17.2989H110.826C110.27 17.2989 109.888 17.401 109.68 17.6052C109.472 17.7958 109.368 18.1633 109.368 18.7078V18.912Z" fill="white"/>
<path d="M130.294 25.7931C128.919 25.7931 127.899 25.4732 127.232 24.8334C126.579 24.1936 126.253 23.1931 126.253 21.8319V15.4612C126.253 14.1 126.579 13.0995 127.232 12.4597C127.899 11.8199 128.919 11.5 130.294 11.5H136.459C137.834 11.5 138.847 11.8199 139.5 12.4597C140.167 13.0995 140.5 14.1 140.5 15.4612V16.3188C140.5 16.8633 140.222 17.1356 139.667 17.1356H137.875C137.32 17.1356 137.042 16.8633 137.042 16.3188V16.0738C137.042 15.4748 136.917 15.0529 136.667 14.8078C136.417 14.5628 135.973 14.4403 135.334 14.4403H131.544C130.919 14.4403 130.474 14.5628 130.21 14.8078C129.961 15.0529 129.836 15.4884 129.836 16.1146V21.1785C129.836 21.8046 129.961 22.2402 130.21 22.4853C130.474 22.7303 130.919 22.8528 131.544 22.8528H135.334C135.973 22.8528 136.417 22.7303 136.667 22.4853C136.917 22.2402 137.042 21.8046 137.042 21.1785V20.8313C137.042 20.2868 137.32 20.0146 137.875 20.0146H139.667C140.222 20.0146 140.5 20.2868 140.5 20.8313V21.8319C140.5 23.1931 140.167 24.1936 139.5 24.8334C138.847 25.4732 137.834 25.7931 136.459 25.7931H130.294Z" fill="white"/>
<path d="M143.507 25.7931C142.951 25.7931 142.674 25.5208 142.674 24.9763V12.3167C142.674 11.7722 142.951 11.5 143.507 11.5H145.277C145.833 11.5 146.11 11.7722 146.11 12.3167V24.9763C146.11 25.5208 145.833 25.7931 145.277 25.7931H143.507Z" fill="white"/>
<path d="M149.385 13.9094C148.83 13.9094 148.552 13.6372 148.552 13.0927V12.3167C148.552 11.7722 148.83 11.5 149.385 11.5H151.156C151.711 11.5 151.989 11.7722 151.989 12.3167V13.0927C151.989 13.6372 151.711 13.9094 151.156 13.9094H149.385ZM149.385 25.7931C148.83 25.7931 148.552 25.5208 148.552 24.9763V15.7471C148.552 15.2026 148.83 14.9303 149.385 14.9303H151.156C151.711 14.9303 151.989 15.2026 151.989 15.7471V24.9763C151.989 25.5208 151.711 25.7931 151.156 25.7931H149.385Z" fill="white"/>
<path d="M157.784 25.7931C156.506 25.7931 155.583 25.5208 155.014 24.9763C154.444 24.4182 154.16 23.5062 154.16 22.2402V18.4832C154.16 17.2172 154.444 16.312 155.014 15.7675C155.583 15.2094 156.506 14.9303 157.784 14.9303H162.283C163.56 14.9303 164.484 15.2094 165.053 15.7675C165.622 16.312 165.907 17.2172 165.907 18.4832V18.7078C165.907 19.1706 165.671 19.402 165.199 19.402H163.283C162.866 19.402 162.658 19.1978 162.658 18.7895V18.7486C162.658 18.2722 162.554 17.9591 162.345 17.8094C162.151 17.6596 161.769 17.5848 161.2 17.5848H158.992C158.436 17.5848 158.055 17.6869 157.846 17.891C157.638 18.0816 157.534 18.4492 157.534 18.9937V21.7298C157.534 22.2743 157.638 22.6486 157.846 22.8528C158.055 23.0434 158.436 23.1386 158.992 23.1386H161.2C161.755 23.1386 162.137 23.0502 162.345 22.8732C162.554 22.6826 162.658 22.3423 162.658 21.8523V21.8114C162.658 21.4031 162.866 21.1989 163.283 21.1989H165.199C165.671 21.1989 165.907 21.4303 165.907 21.8931V22.2402C165.907 23.5062 165.622 24.4182 165.053 24.9763C164.484 25.5208 163.56 25.7931 162.283 25.7931H157.784Z" fill="white"/>
<path d="M179.659 24.6292C179.965 24.9423 180.062 25.2145 179.951 25.446C179.853 25.6774 179.59 25.7931 179.159 25.7931H177.014C176.542 25.7931 176.146 25.6161 175.827 25.2622L171.39 20.7292V24.8334C171.39 25.4732 171.071 25.7931 170.432 25.7931H168.974C168.335 25.7931 168.016 25.4732 168.016 24.8334V12.4597C168.016 11.8199 168.335 11.5 168.974 11.5H170.432C171.071 11.5 171.39 11.8199 171.39 12.4597V20.035L175.722 15.4612C176.042 15.1073 176.438 14.9303 176.91 14.9303H179.013C179.444 14.9303 179.708 15.046 179.805 15.2775C179.916 15.5089 179.819 15.7811 179.513 16.0942L175.077 20.3005L179.659 24.6292Z" fill="white"/>
<path d="M79.0359 45.233C77.7028 45.233 76.7239 44.9267 76.099 44.3142C75.4742 43.7016 75.1617 42.7419 75.1617 41.4351V34.7378C75.1617 33.431 75.4742 32.4713 76.099 31.8588C76.7239 31.2462 77.7028 30.9399 79.0359 30.9399H85.1595C86.4925 30.9399 87.4715 31.2462 88.0963 31.8588C88.7212 32.4713 89.0336 33.431 89.0336 34.7378V35.6567C89.0336 36.065 88.8253 36.2692 88.4087 36.2692H87.0757C86.6591 36.2692 86.4509 36.065 86.4509 35.6567V35.1666C86.4509 34.4179 86.2912 33.8938 85.9718 33.5944C85.6663 33.2949 85.1317 33.1452 84.368 33.1452H79.9107C79.147 33.1452 78.6054 33.3017 78.286 33.6148C77.9806 33.9143 77.8278 34.4383 77.8278 35.187V40.9859C77.8278 41.7346 77.9806 42.2655 78.286 42.5786C78.6054 42.8781 79.147 43.0278 79.9107 43.0278H84.368C85.1317 43.0278 85.6663 42.8781 85.9718 42.5786C86.2912 42.2655 86.4509 41.7346 86.4509 40.9859V40.3529C86.4509 39.9446 86.6591 39.7404 87.0757 39.7404H88.4087C88.8253 39.7404 89.0336 39.9446 89.0336 40.3529V41.4351C89.0336 42.7419 88.7212 43.7016 88.0963 44.3142C87.4715 44.9267 86.4925 45.233 85.1595 45.233H79.0359Z" fill="white"/>
<path d="M98.4573 34.452C98.8738 34.452 99.0821 34.6561 99.0821 35.0645V36.1467C99.0821 36.5551 98.8738 36.7593 98.4573 36.7593H97.52C96.3674 36.7593 95.4649 36.9907 94.8122 37.4535L93.9791 38.0865V44.6205C93.9791 45.0288 93.7708 45.233 93.3542 45.233H92.0629C91.6463 45.233 91.438 45.0288 91.438 44.6205V35.0645C91.438 34.6561 91.6463 34.452 92.0629 34.452H92.7086C93.0835 34.452 93.3126 34.6289 93.3959 34.9828L93.5834 36.0446L93.9166 35.7996C94.6248 35.2279 95.2427 34.8603 95.7704 34.697C96.298 34.5336 97.0548 34.452 98.0407 34.452H98.4573Z" fill="white"/>
<path d="M111.704 34.452C111.94 34.452 112.1 34.52 112.183 34.6561C112.267 34.7786 112.26 34.9488 112.163 35.1666L106.976 45.478C106.365 46.7304 105.727 47.5471 105.06 47.9283C104.394 48.3094 103.338 48.5 101.894 48.5H101.082C100.665 48.5 100.457 48.2958 100.457 47.8874V47.1115C100.457 46.7032 100.665 46.499 101.082 46.499H102.123C102.845 46.499 103.387 46.4037 103.748 46.2131C104.109 46.0225 104.449 45.6346 104.768 45.0492L99.7904 35.1666C99.6932 34.9488 99.6863 34.7786 99.7696 34.6561C99.8668 34.52 100.033 34.452 100.27 34.452H101.748C102.123 34.452 102.366 34.6153 102.477 34.942L105.997 42.6807L109.601 34.942C109.712 34.6153 109.955 34.452 110.33 34.452H111.704Z" fill="white"/>
<path d="M122.044 34.452C123.266 34.452 124.148 34.7174 124.689 35.2483C125.231 35.7656 125.502 36.6299 125.502 37.8414V41.8435C125.502 43.055 125.231 43.9262 124.689 44.4571C124.148 44.9744 123.266 45.233 122.044 45.233H120.524C119.468 45.233 118.656 45.1513 118.087 44.988C117.531 44.8246 116.9 44.4571 116.191 43.8854L116.171 43.865V47.8874C116.171 48.2958 115.962 48.5 115.546 48.5H114.254C113.838 48.5 113.629 48.2958 113.629 47.8874V35.0645C113.629 34.6561 113.838 34.452 114.254 34.452H115.15C115.525 34.452 115.754 34.6289 115.837 34.9828L116.004 35.9425L116.191 35.7996C116.9 35.2279 117.531 34.8603 118.087 34.697C118.656 34.5336 119.468 34.452 120.524 34.452H122.044ZM122.981 41.4964V38.1886C122.981 37.5216 122.857 37.0655 122.607 36.8205C122.357 36.5755 121.891 36.453 121.211 36.453H119.711C118.559 36.453 117.656 36.6912 117.004 37.1676L116.171 37.7802V41.9048L117.004 42.5173C117.656 42.9938 118.559 43.232 119.711 43.232H121.211C121.891 43.232 122.357 43.1095 122.607 42.8644C122.857 42.6194 122.981 42.1634 122.981 41.4964Z" fill="white"/>
<path d="M135.823 36.4326H131.74V41.8435C131.74 42.3608 131.845 42.7215 132.053 42.9257C132.261 43.1299 132.629 43.232 133.157 43.232H135.823C136.239 43.232 136.448 43.4362 136.448 43.8445V44.6205C136.448 45.0288 136.239 45.233 135.823 45.233H132.157C131.143 45.233 130.393 45.0016 129.907 44.5388C129.435 44.076 129.199 43.3409 129.199 42.3336V36.4326H127.575C127.158 36.4326 126.95 36.2284 126.95 35.82V35.0645C126.95 34.6561 127.158 34.452 127.575 34.452H129.199L129.553 32.5122C129.651 32.1719 129.887 32.0017 130.262 32.0017H131.116C131.532 32.0017 131.74 32.2059 131.74 32.6143V34.452H135.823C136.239 34.452 136.448 34.6561 136.448 35.0645V35.82C136.448 36.2284 136.239 36.4326 135.823 36.4326Z" fill="white"/>
<path d="M141.572 45.233C140.351 45.233 139.469 44.9744 138.927 44.4571C138.386 43.9262 138.115 43.055 138.115 41.8435V37.8414C138.115 36.6299 138.386 35.7656 138.927 35.2483C139.469 34.7174 140.351 34.452 141.572 34.452H146.53C147.752 34.452 148.633 34.7174 149.175 35.2483C149.716 35.7656 149.987 36.6299 149.987 37.8414V41.8435C149.987 43.055 149.716 43.9262 149.175 44.4571C148.633 44.9744 147.752 45.233 146.53 45.233H141.572ZM142.406 43.232H145.697C146.377 43.232 146.835 43.1095 147.071 42.8644C147.321 42.6194 147.446 42.1634 147.446 41.4964V38.1886C147.446 37.5216 147.321 37.0655 147.071 36.8205C146.835 36.5755 146.377 36.453 145.697 36.453H142.406C141.725 36.453 141.26 36.5755 141.01 36.8205C140.774 37.0655 140.656 37.5216 140.656 38.1886V41.4964C140.656 42.1634 140.774 42.6194 141.01 42.8644C141.26 43.1095 141.725 43.232 142.406 43.232Z" fill="white"/>
<defs>
<filter id="filter0_bii_2136_243062" x="-16.4666" y="-16.4666" width="98.5483" height="92.9331" filterUnits="userSpaceOnUse" color-interpolation-filters="sRGB">
<feFlood flood-opacity="0" result="BackgroundImageFix"/>
<feGaussianBlur in="BackgroundImageFix" stdDeviation="8.23328"/>
<feComposite in2="SourceAlpha" operator="in" result="effect1_backgroundBlur_2136_243062"/>
<feBlend mode="normal" in="SourceGraphic" in2="effect1_backgroundBlur_2136_243062" result="shape"/>
<feColorMatrix in="SourceAlpha" type="matrix" values="0 0 0 0 0 0 0 0 0 0 0 0 0 0 0 0 0 0 127 0" result="hardAlpha"/>
<feOffset dy="2.53332"/>
<feGaussianBlur stdDeviation="1.26666"/>
<feComposite in2="hardAlpha" operator="arithmetic" k2="-1" k3="1"/>
<feColorMatrix type="matrix" values="0 0 0 0 1 0 0 0 0 1 0 0 0 0 1 0 0 0 0.15 0"/>
<feBlend mode="normal" in2="shape" result="effect2_innerShadow_2136_243062"/>
<feColorMatrix in="SourceAlpha" type="matrix" values="0 0 0 0 0 0 0 0 0 0 0 0 0 0 0 0 0 0 127 0" result="hardAlpha"/>
<feOffset/>
<feGaussianBlur stdDeviation="21.5332"/>
<feComposite in2="hardAlpha" operator="arithmetic" k2="-1" k3="1"/>
<feColorMatrix type="matrix" values="0 0 0 0 1 0 0 0 0 1 0 0 0 0 1 0 0 0 0.05 0"/>
<feBlend mode="normal" in2="effect2_innerShadow_2136_243062" result="effect3_innerShadow_2136_243062"/>
</filter>
<radialGradient id="paint0_radial_2136_243062" cx="0" cy="0" r="1" gradientUnits="userSpaceOnUse" gradientTransform="translate(32.2124 29.9195) rotate(-56.2807) scale(27.9669 27.9496)">
<stop stop-color="#FECB3D" stop-opacity="0"/>
<stop offset="1" stop-color="white"/>
</radialGradient>
</defs>
</svg>
