<svg width="25" height="24" viewBox="0 0 25 24" fill="none" xmlns="http://www.w3.org/2000/svg">
<path d="M21.2448 13.045C20.5672 13.225 19.869 13.3161 19.1678 13.316C17.0328 13.316 15.0278 12.486 13.5218 10.98C12.5329 9.98536 11.8219 8.74887 11.4597 7.39381C11.0976 6.03874 11.0969 4.61242 11.4578 3.25701C11.5029 3.08755 11.5026 2.90921 11.457 2.73988C11.4114 2.57056 11.322 2.41621 11.1979 2.29232C11.0738 2.16842 10.9193 2.07934 10.7499 2.034C10.5805 1.98866 10.4022 1.98867 10.2328 2.03401C8.53597 2.4862 6.98787 3.37664 5.74381 4.61601C1.84581 8.51401 1.84581 14.859 5.74381 18.759C6.67034 19.6907 7.77245 20.4294 8.98635 20.9323C10.2003 21.4353 11.5019 21.6924 12.8158 21.689C14.1294 21.6927 15.4307 21.4357 16.6443 20.9329C17.8579 20.4302 18.9597 19.6916 19.8858 18.76C21.1261 17.5157 22.017 15.9668 22.4688 14.269C22.5137 14.0996 22.5133 13.9214 22.4677 13.7522C22.4221 13.583 22.3329 13.4287 22.209 13.3048C22.0851 13.1809 21.9308 13.0917 21.7616 13.0461C21.5924 13.0005 21.4142 13.0001 21.2448 13.045ZM18.4728 17.346C17.7318 18.0911 16.8503 18.6818 15.8795 19.084C14.9086 19.4862 13.8677 19.6918 12.8168 19.689C11.7656 19.6916 10.7243 19.4858 9.75314 19.0835C8.78197 18.6811 7.9002 18.0903 7.15881 17.345C4.04081 14.226 4.04081 9.15001 7.15881 6.03101C7.76132 5.42918 8.45691 4.92843 9.21881 4.54801C9.10729 5.98707 9.30776 7.43325 9.80654 8.7877C10.3053 10.1422 11.0906 11.373 12.1088 12.396C13.1296 13.4174 14.3601 14.2049 15.7151 14.704C17.0701 15.2032 18.5174 15.4021 19.9568 15.287C19.5743 16.0476 19.0734 16.7426 18.4728 17.346Z"/>
</svg>
