<svg width="97" height="210" viewBox="0 0 97 210" fill="none" xmlns="http://www.w3.org/2000/svg">
<path d="M1 3.5C0.723858 3.5 0.5 3.72386 0.5 4C0.5 4.27614 0.723858 4.5 1 4.5V3.5ZM96.3536 4.35355C96.5488 4.15829 96.5488 3.84171 96.3536 3.64645L93.1716 0.464466C92.9763 0.269204 92.6597 0.269204 92.4645 0.464466C92.2692 0.659728 92.2692 0.976311 92.4645 1.17157L95.2929 4L92.4645 6.82843C92.2692 7.02369 92.2692 7.34027 92.4645 7.53553C92.6597 7.7308 92.9763 7.7308 93.1716 7.53553L96.3536 4.35355ZM96.3536 15.3536C96.5488 15.1583 96.5488 14.8417 96.3536 14.6464L93.1716 11.4645C92.9763 11.2692 92.6597 11.2692 92.4645 11.4645C92.2692 11.6597 92.2692 11.9763 92.4645 12.1716L95.2929 15L92.4645 17.8284C92.2692 18.0237 92.2692 18.3403 92.4645 18.5355C92.6597 18.7308 92.9763 18.7308 93.1716 18.5355L96.3536 15.3536ZM96.3536 27.3536C96.5488 27.1583 96.5488 26.8417 96.3536 26.6464L93.1716 23.4645C92.9763 23.2692 92.6597 23.2692 92.4645 23.4645C92.2692 23.6597 92.2692 23.9763 92.4645 24.1716L95.2929 27L92.4645 29.8284C92.2692 30.0237 92.2692 30.3403 92.4645 30.5355C92.6597 30.7308 92.9763 30.7308 93.1716 30.5355L96.3536 27.3536ZM96.3536 39.3536C96.5488 39.1583 96.5488 38.8417 96.3536 38.6464L93.1716 35.4645C92.9763 35.2692 92.6597 35.2692 92.4645 35.4645C92.2692 35.6597 92.2692 35.9763 92.4645 36.1716L95.2929 39L92.4645 41.8284C92.2692 42.0237 92.2692 42.3403 92.4645 42.5355C92.6597 42.7308 92.9763 42.7308 93.1716 42.5355L96.3536 39.3536ZM30.5 49L30.0619 49.241L30.0684 49.2527L30.0755 49.2642L30.5 49ZM96.3508 49.8562C96.5476 49.6625 96.55 49.3459 96.3562 49.1492L93.1986 45.943C93.0049 45.7462 92.6883 45.7438 92.4916 45.9376C92.2948 46.1313 92.2924 46.4479 92.4862 46.6447L95.2929 49.4946L92.443 52.3014C92.2462 52.4951 92.2438 52.8117 92.4376 53.0084C92.6313 53.2052 92.9479 53.2076 93.1447 53.0138L96.3508 49.8562ZM96.3536 60.6036C96.5488 60.4083 96.5488 60.0917 96.3536 59.8964L93.1716 56.7145C92.9763 56.5192 92.6597 56.5192 92.4645 56.7145C92.2692 56.9097 92.2692 57.2263 92.4645 57.4216L95.2929 60.25L92.4645 63.0784C92.2692 63.2737 92.2692 63.5903 92.4645 63.7855C92.6597 63.9808 92.9763 63.9808 93.1716 63.7855L96.3536 60.6036ZM43 70L42.5645 70.2457L42.5673 70.2505L43 70ZM96.3519 70.6052C96.5481 70.4109 96.5496 70.0943 96.3552 69.8981L93.1883 66.7012C92.9939 66.505 92.6774 66.5035 92.4812 66.6978C92.285 66.8922 92.2835 67.2087 92.4778 67.4049L95.2929 70.2467L92.4512 73.0617C92.255 73.2561 92.2535 73.5726 92.4478 73.7688C92.6422 73.965 92.9587 73.9665 93.1549 73.7722L96.3519 70.6052ZM96.3536 79.8536C96.5488 79.6583 96.5488 79.3417 96.3536 79.1464L93.1716 75.9645C92.9763 75.7692 92.6597 75.7692 92.4645 75.9645C92.2692 76.1597 92.2692 76.4763 92.4645 76.6716L95.2929 79.5L92.4645 82.3284C92.2692 82.5237 92.2692 82.8403 92.4645 83.0355C92.6597 83.2308 92.9763 83.2308 93.1716 83.0355L96.3536 79.8536ZM96.3536 90.3536C96.5488 90.1583 96.5488 89.8417 96.3536 89.6464L93.1716 86.4645C92.9763 86.2692 92.6597 86.2692 92.4645 86.4645C92.2692 86.6597 92.2692 86.9763 92.4645 87.1716L95.2929 90L92.4645 92.8284C92.2692 93.0237 92.2692 93.3403 92.4645 93.5355C92.6597 93.7308 92.9763 93.7308 93.1716 93.5355L96.3536 90.3536ZM96.3536 100.354C96.5488 100.158 96.5488 99.8417 96.3536 99.6464L93.1716 96.4645C92.9763 96.2692 92.6597 96.2692 92.4645 96.4645C92.2692 96.6597 92.2692 96.9763 92.4645 97.1716L95.2929 100L92.4645 102.828C92.2692 103.024 92.2692 103.34 92.4645 103.536C92.6597 103.731 92.9763 103.731 93.1716 103.536L96.3536 100.354ZM96.3536 110.854C96.5488 110.658 96.5488 110.342 96.3536 110.146L93.1716 106.964C92.9763 106.769 92.6597 106.769 92.4645 106.964C92.2692 107.16 92.2692 107.476 92.4645 107.672L95.2929 110.5L92.4645 113.328C92.2692 113.524 92.2692 113.84 92.4645 114.036C92.6597 114.231 92.9763 114.231 93.1716 114.036L96.3536 110.854ZM72 121.5L71.5611 121.739L71.5619 121.741L72 121.5ZM96.3536 121.854C96.5488 121.658 96.5488 121.342 96.3536 121.146L93.1716 117.964C92.9763 117.769 92.6597 117.769 92.4645 117.964C92.2692 118.16 92.2692 118.476 92.4645 118.672L95.2929 121.5L92.4645 124.328C92.2692 124.524 92.2692 124.84 92.4645 125.036C92.6597 125.231 92.9763 125.231 93.1716 125.036L96.3536 121.854ZM96.3536 131.854C96.5488 131.658 96.5488 131.342 96.3536 131.146L93.1716 127.964C92.9763 127.769 92.6597 127.769 92.4645 127.964C92.2692 128.16 92.2692 128.476 92.4645 128.672L95.2929 131.5L92.4645 134.328C92.2692 134.524 92.2692 134.84 92.4645 135.036C92.6597 135.231 92.9763 135.231 93.1716 135.036L96.3536 131.854ZM96.3536 141.854C96.5488 141.658 96.5488 141.342 96.3536 141.146L93.1716 137.964C92.9763 137.769 92.6597 137.769 92.4645 137.964C92.2692 138.16 92.2692 138.476 92.4645 138.672L95.2929 141.5L92.4645 144.328C92.2692 144.524 92.2692 144.84 92.4645 145.036C92.6597 145.231 92.9763 145.231 93.1716 145.036L96.3536 141.854ZM96.3536 152.854C96.5488 152.658 96.5488 152.342 96.3536 152.146L93.1716 148.964C92.9763 148.769 92.6597 148.769 92.4645 148.964C92.2692 149.16 92.2692 149.476 92.4645 149.672L95.2929 152.5L92.4645 155.328C92.2692 155.524 92.2692 155.84 92.4645 156.036C92.6597 156.231 92.9763 156.231 93.1716 156.036L96.3536 152.854ZM96.3536 163.854C96.5488 163.658 96.5488 163.342 96.3536 163.146L93.1716 159.964C92.9763 159.769 92.6597 159.769 92.4645 159.964C92.2692 160.16 92.2692 160.476 92.4645 160.672L95.2929 163.5L92.4645 166.328C92.2692 166.524 92.2692 166.84 92.4645 167.036C92.6597 167.231 92.9763 167.231 93.1716 167.036L96.3536 163.854ZM96.3536 173.854C96.5488 173.658 96.5488 173.342 96.3536 173.146L93.1716 169.964C92.9763 169.769 92.6597 169.769 92.4645 169.964C92.2692 170.16 92.2692 170.476 92.4645 170.672L95.2929 173.5L92.4645 176.328C92.2692 176.524 92.2692 176.84 92.4645 177.036C92.6597 177.231 92.9763 177.231 93.1716 177.036L96.3536 173.854ZM96.3536 184.354C96.5488 184.158 96.5488 183.842 96.3536 183.646L93.1716 180.464C92.9763 180.269 92.6597 180.269 92.4645 180.464C92.2692 180.66 92.2692 180.976 92.4645 181.172L95.2929 184L92.4645 186.828C92.2692 187.024 92.2692 187.34 92.4645 187.536C92.6597 187.731 92.9763 187.731 93.1716 187.536L96.3536 184.354ZM96.3536 194.354C96.5488 194.158 96.5488 193.842 96.3536 193.646L93.1716 190.464C92.9763 190.269 92.6597 190.269 92.4645 190.464C92.2692 190.66 92.2692 190.976 92.4645 191.172L95.2929 194L92.4645 196.828C92.2692 197.024 92.2692 197.34 92.4645 197.536C92.6597 197.731 92.9763 197.731 93.1716 197.536L96.3536 194.354ZM96.3536 205.854C96.5488 205.658 96.5488 205.342 96.3536 205.146L93.1716 201.964C92.9763 201.769 92.6597 201.769 92.4645 201.964C92.2692 202.16 92.2692 202.476 92.4645 202.672L95.2929 205.5L92.4645 208.328C92.2692 208.524 92.2692 208.84 92.4645 209.036C92.6597 209.231 92.9763 209.231 93.1716 209.036L96.3536 205.854ZM1 4.5H4.5V3.5H1V4.5ZM4.5 4.5H96V3.5H4.5V4.5ZM11 15.5H96V14.5H11V15.5ZM4.06954 4.25436L10.5695 15.2544L11.4305 14.7456L4.93046 3.74564L4.06954 4.25436ZM10.5681 15.2519L17.5681 27.2519L18.4319 26.7481L11.4319 14.7481L10.5681 15.2519ZM18 27.5H96V26.5H18V27.5ZM17.5681 27.2519L24.5681 39.2519L25.4319 38.7481L18.4319 26.7481L17.5681 27.2519ZM25 39.5H96V38.5H25V39.5ZM24.5619 39.241L30.0619 49.241L30.9381 48.759L25.4381 38.759L24.5619 39.241ZM30.4962 49.5L95.9962 50L96.0038 49L30.5038 48.5L30.4962 49.5ZM30.0755 49.2642L37.0755 60.5142L37.9245 59.9858L30.9245 48.7358L30.0755 49.2642ZM37.5 60.75H96V59.75H37.5V60.75ZM37.0645 60.4957L42.5645 70.2457L43.4355 69.7543L37.9355 60.0043L37.0645 60.4957ZM42.9976 70.5L95.9976 70.75L96.0024 69.75L43.0024 69.5L42.9976 70.5ZM42.5673 70.2505L48.0673 79.7505L48.9327 79.2495L43.4327 69.7495L42.5673 70.2505ZM48.5 80H96V79H48.5V80ZM48.0659 79.7481L54.0659 90.2481L54.9341 89.7519L48.9341 79.2519L48.0659 79.7481ZM54.5 90.5H96V89.5H54.5V90.5ZM54.0653 90.2471L59.7507 100.247L60.6201 99.7529L54.9347 89.7529L54.0653 90.2471ZM60.1854 100.5H96V99.5H60.1854V100.5ZM59.748 100.242L65.5626 110.742L66.4374 110.258L60.6228 99.7578L59.748 100.242ZM66 111H96V110H66V111ZM65.5611 110.739L71.5611 121.739L72.4389 121.261L66.4389 110.261L65.5611 110.739ZM72 122H96V121H72V122ZM71.5619 121.741L77.0619 131.741L77.9381 131.259L72.4381 121.259L71.5619 121.741ZM77.5 132H96V131H77.5V132ZM77.0528 131.724L82.0528 141.724L82.9472 141.276L77.9472 131.276L77.0528 131.724ZM82.5 142H96V141H82.5V142ZM82.0528 141.724L87.5528 152.724L88.4472 152.276L82.9472 141.276L82.0528 141.724ZM88 153H96V152H88V153ZM87.5 152.5V163.5H88.5V152.5H87.5ZM88 164H96V163H88V164ZM87.5 163.5V173.5H88.5V163.5H87.5ZM88 174H96V173H88V174ZM87.5 173.5V184H88.5V173.5H87.5ZM88 184.5H96V183.5H88V184.5ZM87.5 184V194H88.5V184H87.5ZM88 194.5H96V193.5H88V194.5ZM87.5 194V200.5H88.5V194H87.5ZM93 206H96V205H93V206ZM87.5 200.5C87.5 203.538 89.9624 206 93 206V205C90.5147 205 88.5 202.985 88.5 200.5H87.5Z" fill="#D0D0D0"/>
</svg>
