<svg width="97" height="64" viewBox="0 0 97 64" fill="none" xmlns="http://www.w3.org/2000/svg">
<path d="M1 3.5C0.723858 3.5 0.5 3.72386 0.5 4C0.5 4.27614 0.723858 4.5 1 4.5V3.5ZM96.3536 4.35355C96.5488 4.15829 96.5488 3.84171 96.3536 3.64645L93.1716 0.464466C92.9763 0.269204 92.6597 0.269204 92.4645 0.464466C92.2692 0.659728 92.2692 0.976311 92.4645 1.17157L95.2929 4L92.4645 6.82843C92.2692 7.02369 92.2692 7.34027 92.4645 7.53553C92.6597 7.7308 92.9763 7.7308 93.1716 7.53553L96.3536 4.35355ZM96.3536 15.3536C96.5488 15.1583 96.5488 14.8417 96.3536 14.6464L93.1716 11.4645C92.9763 11.2692 92.6597 11.2692 92.4645 11.4645C92.2692 11.6597 92.2692 11.9763 92.4645 12.1716L95.2929 15L92.4645 17.8284C92.2692 18.0237 92.2692 18.3403 92.4645 18.5355C92.6597 18.7308 92.9763 18.7308 93.1716 18.5355L96.3536 15.3536ZM45 27L44.5528 27.2236L44.56 27.238L44.5681 27.2519L45 27ZM96.3536 27.3536C96.5488 27.1583 96.5488 26.8417 96.3536 26.6464L93.1716 23.4645C92.9763 23.2692 92.6597 23.2692 92.4645 23.4645C92.2692 23.6597 92.2692 23.9763 92.4645 24.1716L95.2929 27L92.4645 29.8284C92.2692 30.0237 92.2692 30.3403 92.4645 30.5355C92.6597 30.7308 92.9763 30.7308 93.1716 30.5355L96.3536 27.3536ZM96.3536 39.3536C96.5488 39.1583 96.5488 38.8417 96.3536 38.6464L93.1716 35.4645C92.9763 35.2692 92.6597 35.2692 92.4645 35.4645C92.2692 35.6597 92.2692 35.9763 92.4645 36.1716L95.2929 39L92.4645 41.8284C92.2692 42.0237 92.2692 42.3403 92.4645 42.5355C92.6597 42.7308 92.9763 42.7308 93.1716 42.5355L96.3536 39.3536ZM57.5 49.5L57.0569 49.7321L57.0634 49.7437L57.5 49.5ZM96.3536 49.8536C96.5488 49.6583 96.5488 49.3417 96.3536 49.1464L93.1716 45.9645C92.9763 45.7692 92.6597 45.7692 92.4645 45.9645C92.2692 46.1597 92.2692 46.4763 92.4645 46.6716L95.2929 49.5L92.4645 52.3284C92.2692 52.5237 92.2692 52.8403 92.4645 53.0355C92.6597 53.2308 92.9763 53.2308 93.1716 53.0355L96.3536 49.8536ZM96.3536 60.6036C96.5488 60.4083 96.5488 60.0917 96.3536 59.8964L93.1716 56.7145C92.9763 56.5192 92.6597 56.5192 92.4645 56.7145C92.2692 56.9097 92.2692 57.2263 92.4645 57.4216L95.2929 60.25L92.4645 63.0784C92.2692 63.2737 92.2692 63.5903 92.4645 63.7855C92.6597 63.9808 92.9763 63.9808 93.1716 63.7855L96.3536 60.6036ZM1 4.5H33V3.5H1V4.5ZM33 4.5H96V3.5H33V4.5ZM39 15.5H96V14.5H39V15.5ZM32.5611 4.23943L38.5611 15.2394L39.4389 14.7606L33.4389 3.76057L32.5611 4.23943ZM38.5528 15.2236L44.5528 27.2236L45.4472 26.7764L39.4472 14.7764L38.5528 15.2236ZM45 27.5H96V26.5H45V27.5ZM44.5681 27.2519L51.5681 39.2519L52.4319 38.7481L45.4319 26.7481L44.5681 27.2519ZM52 39.5H96V38.5H52V39.5ZM51.5571 39.232L57.0571 49.732L57.9429 49.268L52.4429 38.768L51.5571 39.232ZM57.5 50H96V49H57.5V50ZM57.0634 49.7437L61.6328 57.9305L62.506 57.4431L57.9366 49.2563L57.0634 49.7437ZM66.4354 60.75H96V59.75H66.4354V60.75ZM61.6328 57.9305C62.6044 59.6713 64.4418 60.75 66.4354 60.75V59.75C64.8043 59.75 63.3009 58.8674 62.506 57.4431L61.6328 57.9305Z" fill="#D0D0D0"/>
</svg>
