<svg width="24" height="22" viewBox="0 0 24 22" fill="none" xmlns="http://www.w3.org/2000/svg">
<g filter="url(#filter0_bii_1213_329657)">
<path d="M1.19644 12.7225C0.583757 11.6564 0.583757 10.3436 1.19644 9.27754L5.11242 2.46359C5.7267 1.39472 6.86294 0.736927 8.09179 0.736927L15.9082 0.736927C17.1371 0.736927 18.2733 1.39472 18.8876 2.46359L22.8036 9.27755C23.4162 10.3436 23.4162 11.6564 22.8036 12.7225L18.8876 19.5364C18.2733 20.6053 17.1371 21.2631 15.9082 21.2631L8.09179 21.2631C6.86294 21.2631 5.7267 20.6053 5.11242 19.5364L1.19644 12.7225Z" stroke="#E9BE5C" stroke-width="1.47386"/>
</g>
<g clip-path="url(#clip0_1213_329657)">
<path d="M18.6633 13.8272C18.6623 13.7981 18.6613 13.7688 18.6603 13.7393C18.6592 13.7099 18.6581 13.6804 18.6571 13.6508L18.6562 13.6286L18.6558 13.6175L18.6557 13.6147L18.6554 13.5899L18.6553 13.5887L18.655 13.5841L18.6521 13.5473C18.6483 13.4981 18.6445 13.4488 18.6407 13.3994L18.6378 13.362L18.6335 13.3136C18.6304 13.2814 18.6274 13.2491 18.6244 13.217C18.6213 13.1849 18.6181 13.1529 18.615 13.121C18.6134 13.105 18.6118 13.0891 18.6102 13.0732C18.6082 13.0585 18.6063 13.0438 18.6044 13.0291C18.5884 12.9127 18.5741 12.7983 18.5537 12.6883C18.5441 12.6332 18.5352 12.5791 18.5252 12.5264C18.5143 12.4737 18.5037 12.4223 18.4933 12.3722C18.4736 12.2719 18.4489 12.1783 18.428 12.0917C18.4227 12.0701 18.4175 12.0489 18.4124 12.0282C18.4067 12.0077 18.4012 11.9876 18.3958 11.968C18.3848 11.9289 18.3744 11.8918 18.3646 11.857C18.3546 11.8223 18.3458 11.7896 18.3367 11.7597C18.3272 11.7299 18.3185 11.7025 18.3107 11.6777C18.2991 11.6414 18.2892 11.6107 18.2815 11.5865C18.2701 11.5508 18.2326 11.5307 18.1967 11.541L15.9425 12.1876C15.9081 12.1975 15.8868 12.2319 15.8934 12.2672C15.8958 12.2804 15.8986 12.2956 15.9017 12.3125C15.905 12.3295 15.9085 12.3484 15.9124 12.3689C15.9161 12.3895 15.9189 12.412 15.9226 12.4359C15.9262 12.4597 15.9301 12.4851 15.9341 12.5119C15.9361 12.5253 15.9385 12.5389 15.9403 12.553C15.9419 12.5671 15.9435 12.5816 15.9452 12.5964C15.9515 12.6555 15.9609 12.7189 15.9651 12.7868C15.9678 12.8206 15.9707 12.8553 15.9736 12.8908C15.9758 12.9264 15.9769 12.9628 15.9788 12.9997C15.9836 13.0733 15.9827 13.15 15.9841 13.2273L15.9844 13.2562L15.9834 13.2817C15.9829 13.2986 15.9823 13.3157 15.9817 13.3327C15.9812 13.3497 15.9808 13.3668 15.9803 13.3839L15.9798 13.4094L15.9782 13.4462C15.9762 13.4956 15.974 13.5451 15.972 13.5943L15.9704 13.6313L15.9702 13.6359L15.9701 13.637C15.9702 13.6425 15.9697 13.593 15.9699 13.6144L15.9697 13.6162L15.969 13.6235L15.9677 13.6381C15.9659 13.6575 15.9642 13.6768 15.9625 13.696C15.9608 13.7152 15.9591 13.7344 15.9575 13.7534C15.9552 13.7724 15.953 13.7913 15.9508 13.81C15.946 13.8474 15.943 13.8845 15.9371 13.9206C15.9319 13.9568 15.9268 13.9923 15.9218 14.0271C15.9158 14.0616 15.91 14.0954 15.9043 14.1283C15.8992 14.1612 15.8923 14.1929 15.8862 14.2236C15.8798 14.2542 15.8747 14.284 15.8681 14.3122C15.8616 14.3404 15.8554 14.3674 15.8495 14.3931C15.8466 14.4058 15.8437 14.4182 15.841 14.4302C15.8381 14.4405 15.8354 14.4505 15.8327 14.4602C15.8311 14.4662 15.8297 14.4717 15.8281 14.4775H18.5852C18.6221 14.4775 18.6529 14.4483 18.6543 14.4111C18.6543 14.4109 18.6543 14.4107 18.6543 14.4105C18.6566 14.3588 18.659 14.3057 18.6614 14.2515C18.6624 14.1973 18.6634 14.1419 18.6645 14.0856C18.6661 14.0294 18.6644 13.9722 18.6642 13.9144C18.6639 13.8855 18.6636 13.8564 18.6633 13.8272Z" fill="#E9BE5C"/>
<path d="M17.9467 10.9146C17.9837 10.8996 18.0006 10.8565 17.9835 10.8203C17.976 10.8041 17.9671 10.7853 17.9571 10.764C17.9476 10.7439 17.9371 10.7218 17.9257 10.6976C17.911 10.6674 17.8951 10.6348 17.8781 10.5999C17.8609 10.5652 17.8427 10.5282 17.8234 10.4893C17.8137 10.469 17.8041 10.4523 17.7941 10.4333C17.7841 10.4147 17.7738 10.3957 17.7634 10.3762C17.7424 10.3375 17.7209 10.2969 17.6978 10.2554C17.674 10.2144 17.6494 10.1719 17.6241 10.1283C17.6114 10.1065 17.5985 10.0844 17.5855 10.0621C17.5719 10.0401 17.5581 10.0179 17.5441 9.99538C17.5161 9.95058 17.4875 9.9048 17.4584 9.85826C17.3969 9.76715 17.3358 9.67185 17.2675 9.5791C17.2508 9.55575 17.2339 9.53232 17.217 9.50881L17.1916 9.47358L17.1652 9.43892C17.1298 9.39283 17.0943 9.34658 17.0588 9.30031C17.0227 9.25458 16.9853 9.20982 16.9486 9.16488C16.9301 9.14256 16.9121 9.11991 16.8932 9.0981C16.8743 9.07636 16.8554 9.05467 16.8365 9.03308C16.8177 9.01156 16.7989 8.99009 16.7802 8.96874C16.7617 8.94731 16.743 8.92625 16.7236 8.90588C16.6854 8.8649 16.6477 8.82442 16.6105 8.7846C16.5733 8.7449 16.5348 8.70759 16.4982 8.6703C16.4613 8.6332 16.4254 8.59677 16.3888 8.56294C16.3525 8.52881 16.3173 8.49561 16.2832 8.46348C16.2493 8.43129 16.2146 8.40205 16.1823 8.37309C16.1498 8.34444 16.1186 8.31699 16.0889 8.29088C16.0585 8.26564 16.0296 8.24171 16.0025 8.21922C15.9754 8.19681 15.95 8.17585 15.9265 8.15647C15.903 8.13715 15.8805 8.12041 15.8606 8.1048C15.8317 8.0825 15.8074 8.06365 15.788 8.04868C15.7584 8.02585 15.7163 8.03072 15.6926 8.05964L14.4827 9.53371C14.4599 9.56152 14.4618 9.60214 14.4873 9.62752C14.4974 9.63757 14.5091 9.64921 14.5222 9.66231C14.5348 9.67504 14.5492 9.68852 14.564 9.70425C14.5788 9.71998 14.5948 9.737 14.6119 9.75517C14.629 9.77325 14.6472 9.79249 14.6663 9.81277C14.6848 9.83371 14.7042 9.85576 14.7245 9.87875C14.7445 9.90194 14.7664 9.92497 14.7873 9.95065C14.8083 9.97608 14.83 10.0024 14.8523 10.0294C14.8751 10.0559 14.8968 10.0847 14.9193 10.1138C14.9415 10.1431 14.9653 10.172 14.9876 10.203C15.01 10.2339 15.0327 10.2653 15.0557 10.297C15.0675 10.3127 15.0786 10.329 15.0896 10.3456C15.1006 10.362 15.1118 10.3785 15.123 10.3951C15.1342 10.4116 15.1454 10.4282 15.1567 10.4448C15.168 10.4614 15.1783 10.4789 15.1892 10.4959C15.2105 10.5302 15.2327 10.5641 15.2537 10.5987C15.2741 10.6336 15.2946 10.6686 15.315 10.7034L15.3303 10.7293L15.3446 10.7558C15.3542 10.7734 15.3637 10.791 15.3732 10.8085C15.4124 10.8776 15.4456 10.9488 15.4802 11.0157C15.4961 11.05 15.5117 11.0837 15.5269 11.1167C15.5346 11.1331 15.5421 11.1494 15.5496 11.1655C15.5565 11.1818 15.5633 11.198 15.5701 11.2139C15.5836 11.2457 15.5968 11.2766 15.6095 11.3064C15.6213 11.3367 15.6327 11.3659 15.6436 11.394C15.6491 11.408 15.6544 11.4217 15.6596 11.4351C15.6646 11.4482 15.6707 11.4624 15.674 11.4733C15.6818 11.4961 15.6891 11.5179 15.6961 11.5382C15.7031 11.5585 15.7098 11.5775 15.7159 11.595C15.7239 11.6192 15.7313 11.6413 15.738 11.6613C15.7454 11.6837 15.7519 11.7035 15.7576 11.7204C15.7702 11.7585 15.812 11.7779 15.849 11.7629L17.9467 10.9146Z" fill="#E9BE5C"/>
<path d="M11.7863 8.28178C11.8047 8.2843 11.8249 8.28708 11.847 8.29012C11.869 8.29396 11.8927 8.29813 11.9181 8.30258C11.9434 8.30695 11.9703 8.3116 11.9987 8.31652C12.0234 8.32064 12.049 8.32663 12.0755 8.33223L12.8391 6.76017C12.8012 6.75422 12.7637 6.74832 12.7269 6.74254C12.7017 6.73877 12.6769 6.73443 12.6522 6.73132C12.6275 6.72831 12.603 6.72533 12.5789 6.7224C12.5308 6.71665 12.484 6.71104 12.4387 6.70563C12.3934 6.70171 12.3495 6.69793 12.3074 6.6943C12.2653 6.69105 12.2251 6.68677 12.1867 6.68493C12.1483 6.68304 12.1119 6.68123 12.0777 6.67953C12.0435 6.67791 12.0116 6.6764 11.982 6.67499C11.9525 6.67451 11.9253 6.67407 11.9007 6.67367C11.8662 6.67325 11.8369 6.6729 11.8134 6.67261C11.7762 6.67216 11.7453 6.70147 11.7435 6.73894L11.6739 8.20215C11.6722 8.2382 11.698 8.26959 11.7336 8.27449C11.7487 8.27658 11.7663 8.27903 11.7863 8.28178Z" fill="#E9BE5C"/>
<path d="M13.8391 9.08746C13.8597 9.10248 13.8791 9.11672 13.8974 9.13013C13.9157 9.14332 13.9328 9.15567 13.9487 9.1671C13.9555 9.17184 13.9669 9.18049 13.9761 9.18741C13.9856 9.19457 13.9947 9.2014 14.0033 9.20787C14.0221 9.22198 14.0387 9.23444 14.0529 9.24511C14.0848 9.26909 14.1302 9.26098 14.1521 9.22745L15.149 7.69898C15.1709 7.66545 15.1602 7.62034 15.1257 7.60038C15.1103 7.59151 15.0923 7.58114 15.072 7.5694C15.0627 7.564 15.0528 7.55834 15.0425 7.55238C15.0313 7.54598 15.0195 7.53928 15.0073 7.5323C14.9789 7.51657 14.9482 7.49957 14.9155 7.48139C14.8827 7.46341 14.8478 7.44428 14.811 7.42409C14.7759 7.40642 14.7391 7.38784 14.7007 7.36845C14.6621 7.34949 14.6227 7.3284 14.5805 7.30926C14.5384 7.28987 14.495 7.26983 14.4503 7.24922C14.406 7.22814 14.3591 7.209 14.3116 7.18891C14.2639 7.16924 14.2159 7.14774 14.1657 7.12877C14.153 7.12393 14.1401 7.11902 14.1273 7.11414L13.6973 8.99297C13.721 9.008 13.7434 9.02394 13.7655 9.03832C13.7912 9.05545 13.8157 9.07185 13.8391 9.08746Z" fill="#E9BE5C"/>
<path d="M10.4454 8.27402C10.4646 8.27146 10.4835 8.2683 10.5024 8.26629C10.5213 8.26437 10.54 8.26246 10.5583 8.26057C10.595 8.25674 10.6307 8.25301 10.6653 8.24939C10.6999 8.24706 10.7334 8.2448 10.7655 8.24263C10.7815 8.24153 10.7972 8.24045 10.8126 8.23939C10.8279 8.23836 10.8432 8.23705 10.8563 8.23703C10.8834 8.23631 10.9091 8.23565 10.9332 8.23501C10.9573 8.23425 10.9798 8.23353 11.0006 8.23287C11.0263 8.2327 11.0498 8.23254 11.0711 8.2324C11.0946 8.23227 11.1153 8.23216 11.133 8.23206C11.1728 8.23185 11.2042 8.19787 11.2016 8.15784L11.1118 6.77949C11.1092 6.73945 11.0737 6.70988 11.0342 6.71491C11.0166 6.71715 10.9961 6.71976 10.9728 6.72271C10.9513 6.72547 10.9274 6.72853 10.9014 6.73187C10.8707 6.73646 10.8375 6.7414 10.802 6.7467C10.7666 6.75212 10.7289 6.7579 10.6892 6.76399C10.6689 6.76687 10.6502 6.7707 10.6306 6.77443C10.611 6.77819 10.591 6.78204 10.5705 6.78597C10.5297 6.79391 10.4872 6.80219 10.4431 6.81075C10.3994 6.82077 10.3543 6.83113 10.3078 6.84177C10.2846 6.84713 10.2611 6.85256 10.2374 6.85807C10.2136 6.86367 10.1898 6.87051 10.1657 6.87679C10.1174 6.88972 10.0682 6.90293 10.0181 6.91635C9.96857 6.93139 9.91817 6.94668 9.86717 6.96216C9.84174 6.97009 9.81604 6.97756 9.79049 6.98602C9.76506 6.99477 9.73945 7.00354 9.71377 7.01237C9.68812 7.02121 9.66238 7.03008 9.63657 7.039C9.61075 7.04784 9.58488 7.05673 9.55937 7.06685C9.50821 7.0865 9.45685 7.10624 9.4055 7.12597C9.35437 7.14612 9.30408 7.16844 9.25368 7.18956C9.22856 7.20034 9.20337 7.21074 9.17854 7.2218C9.15388 7.23325 9.1293 7.24467 9.10481 7.25605C9.08038 7.26744 9.05603 7.2788 9.03182 7.29009C9.00761 7.30136 8.98349 7.31246 8.96005 7.32471C8.91301 7.34861 8.86654 7.37223 8.82084 7.39546C8.77513 7.41853 8.73156 7.44398 8.68829 7.46742C8.64522 7.49129 8.60286 7.51407 8.5629 7.5386C8.52272 7.56259 8.48363 7.58594 8.44582 7.60852C8.4079 7.63078 8.37273 7.65483 8.33826 7.67655C8.30403 7.69863 8.27123 7.71981 8.24003 7.73994C8.2095 7.76103 8.18053 7.78103 8.15332 7.79984C8.12618 7.81865 8.10077 7.83626 8.07728 7.85254C8.05381 7.86883 8.03305 7.88498 8.01392 7.89894C7.988 7.91821 7.96587 7.93465 7.94796 7.94796C7.91805 7.97018 7.91103 8.01215 7.93194 8.0431L8.50057 8.88458C8.52081 8.91453 8.56038 8.92392 8.59172 8.90611C8.60616 8.89791 8.62323 8.88821 8.64269 8.87716C8.65966 8.86771 8.67802 8.85655 8.69875 8.84569C8.71947 8.83481 8.74187 8.82308 8.7658 8.81054C8.78965 8.79798 8.81506 8.78462 8.84182 8.77053C8.86905 8.75739 8.89767 8.74358 8.92753 8.72917C8.95754 8.7151 8.98798 8.69898 9.02081 8.68492C9.05339 8.67053 9.08707 8.65565 9.12171 8.64035C9.156 8.62446 9.19232 8.61057 9.22906 8.59574C9.266 8.58133 9.303 8.56503 9.34175 8.55125C9.38033 8.53725 9.41958 8.52303 9.45928 8.50862C9.47897 8.50109 9.49924 8.49472 9.51955 8.48819C9.53981 8.48162 9.56019 8.47503 9.58064 8.4684C9.60105 8.46176 9.62154 8.45509 9.64209 8.4484C9.66275 8.44208 9.6837 8.43643 9.70452 8.43039C9.74633 8.41875 9.78786 8.40583 9.82996 8.39501C9.87209 8.38452 9.91423 8.37402 9.95619 8.36358C9.97702 8.358 9.99816 8.35363 10.0192 8.34927C10.0402 8.34482 10.0611 8.34038 10.082 8.33596C10.1028 8.33151 10.1235 8.32709 10.1442 8.32268C10.1648 8.31853 10.1856 8.31532 10.2061 8.31161C10.2471 8.30445 10.2876 8.29735 10.3275 8.2904C10.3675 8.28485 10.4068 8.27937 10.4454 8.27402Z" fill="#E9BE5C"/>
<path d="M6.5697 9.36211C6.5548 9.38333 6.53984 9.40465 6.5248 9.42605C6.50982 9.44744 6.49477 9.46891 6.47967 9.49046C6.46464 9.51203 6.45057 9.5344 6.43595 9.55641C6.40712 9.60073 6.37762 9.64471 6.34938 9.68952C6.3218 9.73471 6.29422 9.7799 6.26676 9.82492L6.24626 9.85863L6.22681 9.89289C6.21389 9.91566 6.201 9.93839 6.18816 9.961C6.13567 10.0508 6.09007 10.1425 6.04372 10.2296C6.02215 10.2741 6.00093 10.3177 5.98016 10.3605C5.96986 10.3819 5.95965 10.403 5.94959 10.4239C5.94012 10.4451 5.93077 10.466 5.92154 10.4867C5.90315 10.5279 5.88527 10.568 5.86796 10.6068C5.85182 10.6461 5.83622 10.684 5.82124 10.7204C5.80656 10.757 5.79173 10.7915 5.77908 10.8251C5.7666 10.8587 5.75476 10.8905 5.74361 10.9205C5.73253 10.9504 5.72215 10.9784 5.71257 11.0043C5.70371 11.0304 5.69559 11.0544 5.68823 11.0761C5.67869 11.1046 5.67049 11.1291 5.6638 11.1491C5.65194 11.1845 5.66997 11.2229 5.70464 11.2363L6.2339 11.4405C6.26758 11.4535 6.30552 11.4383 6.32109 11.4056C6.32881 11.3893 6.33803 11.3699 6.34862 11.3476C6.35741 11.3292 6.36712 11.3089 6.37772 11.2867C6.38897 11.2649 6.40114 11.2413 6.41415 11.216C6.42712 11.1909 6.4409 11.164 6.45544 11.1358C6.4701 11.1076 6.48697 11.0787 6.50371 11.0482C6.52066 11.0179 6.53833 10.9862 6.55662 10.9535C6.57589 10.9214 6.59581 10.8882 6.6163 10.854C6.6265 10.837 6.63685 10.8197 6.64732 10.8022C6.65833 10.785 6.66949 10.7677 6.68076 10.7501C6.7033 10.7151 6.72633 10.6793 6.74976 10.6429C6.79953 10.5719 6.8482 10.4973 6.9032 10.4252C6.91664 10.407 6.93012 10.3887 6.94365 10.3704L6.96393 10.3429L6.98518 10.316C7.01348 10.2802 7.04188 10.2442 7.07029 10.2082C7.09922 10.1727 7.12924 10.138 7.15842 10.1031C7.17321 10.0858 7.18741 10.0681 7.20256 10.0512C7.21772 10.0344 7.23282 10.0176 7.24786 10.0009C7.26288 9.98421 7.27783 9.96759 7.2927 9.95103C7.30744 9.93439 7.32232 9.91804 7.33777 9.90238C7.36817 9.87069 7.39821 9.83939 7.42775 9.80858C7.45724 9.77782 7.48802 9.74929 7.51707 9.72044C7.54635 9.6918 7.57467 9.66355 7.60383 9.63766C7.63252 9.61138 7.66042 9.58583 7.68743 9.56109C7.71421 9.53621 7.7418 9.514 7.76729 9.49171C7.79294 9.46972 7.81753 9.44864 7.84091 9.42859C7.86388 9.4103 7.88566 9.39295 7.90612 9.37662C7.92647 9.36032 7.94552 9.34505 7.96313 9.33092C7.97122 9.3242 7.98216 9.31614 7.99141 9.30907C8.0009 9.30185 8.00995 9.29498 8.01854 9.28847C8.03725 9.27424 8.05377 9.2617 8.06792 9.25096C8.09973 9.22679 8.10466 9.18071 8.07878 9.1502L7.47618 8.43963C7.4503 8.40912 7.40431 8.40679 7.37561 8.43462C7.36285 8.44699 7.34793 8.46145 7.33106 8.47782C7.32332 8.48532 7.31515 8.49325 7.30659 8.50154C7.29787 8.51006 7.28957 8.51781 7.27877 8.52893C7.25811 8.54991 7.23578 8.57261 7.21191 8.59685C7.18816 8.62111 7.16288 8.64692 7.13623 8.67412C7.11146 8.70114 7.08541 8.72953 7.05824 8.75915C7.0314 8.789 7.00246 8.81908 6.97446 8.85205C6.94635 8.88485 6.91729 8.91877 6.88741 8.95362C6.85717 8.98806 6.82791 9.02506 6.7978 9.0626C6.76792 9.10033 6.73643 9.13798 6.70638 9.17787C6.67641 9.21777 6.64596 9.25832 6.61513 9.2994C6.59947 9.31976 6.5845 9.34078 6.5697 9.36211Z" fill="#E9BE5C"/>
<path d="M5.47456 11.8534C5.47103 11.8709 5.46691 11.8914 5.46223 11.9145C5.45795 11.9357 5.45321 11.9592 5.44805 11.9848C5.44298 12.0109 5.43802 12.0418 5.43249 12.0734C5.42705 12.1052 5.42127 12.1391 5.41517 12.1748C5.41223 12.1926 5.40886 12.211 5.40607 12.2295C5.40358 12.248 5.40106 12.2668 5.39846 12.286C5.38858 12.3631 5.37557 12.446 5.36807 12.5345C5.36372 12.5786 5.35926 12.6239 5.3547 12.6703C5.35094 12.7166 5.34842 12.7641 5.34518 12.8123C5.3376 12.9085 5.33621 13.0083 5.33306 13.1092L5.33203 13.1472L5.33221 13.1853C5.33235 13.2107 5.33249 13.2362 5.33263 13.2618C5.33279 13.2873 5.33294 13.3129 5.33308 13.3384L5.33332 13.3768L5.33478 13.4152C5.33685 13.4663 5.33891 13.5175 5.34097 13.5684L5.34253 13.6064L5.34301 13.6188L5.34368 13.628L5.34503 13.6463C5.34682 13.6708 5.34861 13.6952 5.35039 13.7195C5.35217 13.7438 5.35395 13.768 5.35571 13.7921C5.35814 13.8172 5.36054 13.8422 5.36295 13.8671C5.36538 13.8919 5.36779 13.9166 5.37019 13.9411C5.3714 13.9533 5.37261 13.9655 5.37381 13.9777C5.37532 13.9896 5.37682 14.0015 5.3783 14.0134C5.38428 14.0607 5.39016 14.1073 5.39592 14.1528C5.40287 14.1982 5.40966 14.2426 5.41626 14.2858C5.42243 14.329 5.43039 14.3708 5.4377 14.4111C5.4383 14.4144 5.43891 14.4176 5.4395 14.4208C5.4456 14.4538 5.47415 14.4777 5.50751 14.4777H5.69405C5.73388 14.4777 5.76549 14.444 5.76315 14.404C5.76251 14.3933 5.76187 14.3825 5.76115 14.3716C5.75882 14.3327 5.75602 14.2925 5.75512 14.2511C5.75377 14.2097 5.7524 14.1672 5.75098 14.1238C5.75071 14.0804 5.75044 14.0361 5.75018 13.991C5.75011 13.9797 5.75004 13.9684 5.74997 13.9571C5.75021 13.9459 5.75046 13.9346 5.75071 13.9234C5.7512 13.9009 5.75169 13.8782 5.7522 13.8554C5.75269 13.8326 5.7532 13.8097 5.7537 13.7867C5.75482 13.7625 5.75593 13.7383 5.75707 13.714C5.75819 13.6896 5.75933 13.6652 5.76045 13.6407L5.76131 13.6223L5.76173 13.613L5.76178 13.6119C5.76178 13.609 5.76184 13.6146 5.76187 13.6136L5.76204 13.6114L5.76239 13.607L5.76522 13.5713C5.76898 13.5238 5.77276 13.4761 5.77655 13.4284L5.77944 13.3927L5.78352 13.3571C5.78625 13.3334 5.78896 13.3097 5.79167 13.2861C5.79436 13.2625 5.79705 13.2389 5.79974 13.2154L5.80374 13.1803L5.80891 13.1454C5.82312 13.0525 5.83519 12.9612 5.85287 12.8738C5.86117 12.83 5.86859 12.7869 5.87711 12.745C5.88639 12.7032 5.89545 12.6624 5.90428 12.6226C5.92062 12.5429 5.9418 12.4688 5.95903 12.4001C5.96345 12.383 5.96778 12.3662 5.972 12.3498C5.97646 12.3337 5.98128 12.3184 5.98571 12.3032C5.99465 12.2731 6.00315 12.2445 6.01112 12.2176C6.01927 12.1906 6.02597 12.1663 6.03377 12.142C6.04195 12.1172 6.04945 12.0945 6.05624 12.0739C6.06362 12.0515 6.07015 12.0317 6.07573 12.0148C6.0883 11.9767 6.06636 11.936 6.02785 11.9256L5.56021 11.8001C5.52169 11.7898 5.4825 11.8141 5.47456 11.8534Z" fill="#E9BE5C"/>
<path d="M10.7679 14.293C10.92 14.3679 11.0812 14.4034 11.2399 14.4034C11.6382 14.4034 12.0209 14.18 12.2076 13.7956C12.2436 13.7216 12.2714 13.6399 12.2895 13.563L13.3783 8.80624L13.793 6.99472L14.0499 5.87253C14.0798 5.74192 13.9765 5.65295 13.873 5.65295C13.8124 5.65295 13.7516 5.68345 13.7174 5.75393L13.1946 6.83015L12.4235 8.41781L10.2737 12.8439C10.0126 13.3814 10.2339 14.0302 10.7679 14.293ZM11.2798 12.7612C11.5711 12.7612 11.8073 12.9989 11.8073 13.2922C11.8073 13.5854 11.5711 13.8232 11.2798 13.8232C10.9884 13.8232 10.7522 13.5854 10.7522 13.2922C10.7522 12.9989 10.9884 12.7612 11.2798 12.7612Z" fill="#E9BE5C"/>
</g>
<defs>
<filter id="filter0_bii_1213_329657" x="-12.1347" y="-12.1347" width="48.2693" height="46.2693" filterUnits="userSpaceOnUse" color-interpolation-filters="sRGB">
<feFlood flood-opacity="0" result="BackgroundImageFix"/>
<feGaussianBlur in="BackgroundImageFix" stdDeviation="6.06733"/>
<feComposite in2="SourceAlpha" operator="in" result="effect1_backgroundBlur_1213_329657"/>
<feBlend mode="normal" in="SourceGraphic" in2="effect1_backgroundBlur_1213_329657" result="shape"/>
<feColorMatrix in="SourceAlpha" type="matrix" values="0 0 0 0 0 0 0 0 0 0 0 0 0 0 0 0 0 0 127 0" result="hardAlpha"/>
<feOffset dy="1.86687"/>
<feGaussianBlur stdDeviation="0.933436"/>
<feComposite in2="hardAlpha" operator="arithmetic" k2="-1" k3="1"/>
<feColorMatrix type="matrix" values="0 0 0 0 1 0 0 0 0 1 0 0 0 0 1 0 0 0 0.15 0"/>
<feBlend mode="normal" in2="shape" result="effect2_innerShadow_1213_329657"/>
<feColorMatrix in="SourceAlpha" type="matrix" values="0 0 0 0 0 0 0 0 0 0 0 0 0 0 0 0 0 0 127 0" result="hardAlpha"/>
<feOffset/>
<feGaussianBlur stdDeviation="15.8684"/>
<feComposite in2="hardAlpha" operator="arithmetic" k2="-1" k3="1"/>
<feColorMatrix type="matrix" values="0 0 0 0 1 0 0 0 0 1 0 0 0 0 1 0 0 0 0.05 0"/>
<feBlend mode="normal" in2="effect2_innerShadow_1213_329657" result="effect3_innerShadow_1213_329657"/>
</filter>
<clipPath id="clip0_1213_329657">
<rect width="13.3333" height="13.4205" fill="white" transform="translate(5.33398 3.3551)"/>
</clipPath>
</defs>
</svg>
